<svg width="100" height="100" viewBox="0 0 100 100" fill="none" xmlns="http://www.w3.org/2000/svg">
<circle cx="50" cy="50" r="50" fill="#8243FF"/>
<path d="M59.2045 39.4545C58.9659 37.4394 57.9981 35.875 56.3011 34.7614C54.6042 33.6477 52.5227 33.0909 50.0568 33.0909C48.2538 33.0909 46.6761 33.3826 45.3239 33.9659C43.9848 34.5492 42.9375 35.3513 42.1818 36.3722C41.4394 37.393 41.0682 38.553 41.0682 39.8523C41.0682 40.9394 41.3267 41.8741 41.8438 42.6562C42.3741 43.4252 43.0502 44.0682 43.8722 44.5852C44.6941 45.089 45.5559 45.5066 46.4574 45.8381C47.3589 46.1562 48.1875 46.4148 48.9432 46.6136L53.0795 47.7273C54.1402 48.0057 55.3201 48.3902 56.6193 48.8807C57.9318 49.3712 59.1847 50.0407 60.3778 50.8892C61.5843 51.7244 62.5786 52.7983 63.3608 54.1108C64.143 55.4233 64.5341 57.0341 64.5341 58.9432C64.5341 61.1439 63.9574 63.1326 62.804 64.9091C61.6638 66.6856 59.9934 68.0975 57.7926 69.1449C55.6051 70.1922 52.947 70.7159 49.8182 70.7159C46.9015 70.7159 44.3759 70.2453 42.2415 69.304C40.1203 68.3627 38.4498 67.0502 37.2301 65.3665C36.0237 63.6828 35.3409 61.7273 35.1818 59.5H40.2727C40.4053 61.0379 40.9223 62.3106 41.8239 63.3182C42.7386 64.3125 43.892 65.0549 45.2841 65.5455C46.6894 66.0227 48.2008 66.2614 49.8182 66.2614C51.7008 66.2614 53.3911 65.9564 54.8892 65.3466C56.3873 64.7235 57.5739 63.8617 58.4489 62.7614C59.3239 61.6477 59.7614 60.3485 59.7614 58.8636C59.7614 57.5114 59.3835 56.411 58.6278 55.5625C57.8722 54.714 56.8778 54.0246 55.6449 53.4943C54.4119 52.964 53.0795 52.5 51.6477 52.1023L46.6364 50.6705C43.4545 49.7557 40.9356 48.4498 39.0795 46.7528C37.2235 45.0559 36.2955 42.8352 36.2955 40.0909C36.2955 37.8106 36.9119 35.822 38.1449 34.125C39.3911 32.4148 41.0616 31.089 43.1562 30.1477C45.2642 29.1932 47.6174 28.7159 50.2159 28.7159C52.8409 28.7159 55.1742 29.1866 57.2159 30.1278C59.2576 31.0559 60.875 32.3286 62.0682 33.946C63.2746 35.5634 63.911 37.3996 63.9773 39.4545H59.2045Z" fill="white"/>
</svg>
