<svg width="100" height="100" viewBox="0 0 100 100" fill="none" xmlns="http://www.w3.org/2000/svg">
<circle cx="50" cy="50" r="50" fill="#333537"/>
<path d="M44.25 61.0208C44.0392 61.0208 43.8092 60.9633 43.6175 60.8675C42.1417 60.12 40.8767 59.0083 39.9567 57.6283C39.19 56.4783 39.19 55.0025 39.9567 53.8525C40.8767 52.4725 42.1417 51.3608 43.6175 50.6325C44.3267 50.2683 45.1892 50.575 45.5534 51.2842C45.9175 51.9933 45.63 52.8558 44.9017 53.22C43.8667 53.7375 42.985 54.5233 42.3525 55.4817C42.2375 55.6542 42.2375 55.8842 42.3525 56.0758C42.985 57.0342 43.8667 57.82 44.9017 58.3375C45.6109 58.7017 45.8984 59.5642 45.5534 60.2733C45.285 60.7333 44.7675 61.0208 44.25 61.0208Z" fill="#E3E3E3"/>
<path d="M56.1526 61.0208C55.6159 61.0208 55.1176 60.7333 54.8684 60.235C54.5042 59.5258 54.7917 58.6633 55.5201 58.2992C56.5551 57.7817 57.4367 56.9958 58.0692 56.0375C58.1842 55.865 58.1842 55.635 58.0692 55.4433C57.4367 54.485 56.5551 53.6992 55.5201 53.1817C54.8109 52.8175 54.5234 51.955 54.8684 51.2458C55.2326 50.5367 56.0951 50.2492 56.8042 50.5942C58.2801 51.3417 59.5451 52.4533 60.4651 53.8333C61.2317 54.9833 61.2317 56.4592 60.4651 57.6092C59.5451 58.9892 58.2801 60.1008 56.8042 60.8292C56.5742 60.9633 56.3634 61.0208 56.1526 61.0208Z" fill="#E3E3E3"/>
<path d="M55.75 70.6042H44.25C33.8425 70.6042 29.3959 66.1575 29.3959 55.75V44.25C29.3959 33.8425 33.8425 29.3958 44.25 29.3958H55.75C66.1575 29.3958 70.6042 33.8425 70.6042 44.25V55.75C70.6042 66.1575 66.1575 70.6042 55.75 70.6042ZM44.25 32.2708C35.4142 32.2708 32.2709 35.4142 32.2709 44.25V55.75C32.2709 64.5858 35.4142 67.7292 44.25 67.7292H55.75C64.5859 67.7292 67.7292 64.5858 67.7292 55.75V44.25C67.7292 35.4142 64.5859 32.2708 55.75 32.2708H44.25Z" fill="#E3E3E3"/>
<path d="M31.2742 43.79C30.4883 43.79 29.8367 43.1383 29.8367 42.3525C29.8367 41.5667 30.4692 40.915 31.2742 40.915L68.1125 40.8958C68.8983 40.8958 69.55 41.5475 69.55 42.3333C69.55 43.1192 68.9175 43.7708 68.1125 43.7708L31.2742 43.79Z" fill="#E3E3E3"/>
</svg>
