<svg width="100" height="100" viewBox="0 0 100 100" fill="none" xmlns="http://www.w3.org/2000/svg">
<circle cx="50" cy="50" r="50" fill="#333537"/>
<path d="M55.3091 64.8542H44.7483C43.9049 64.8542 42.8316 64.7583 42.1224 64.03C41.4324 63.3208 41.4516 62.4392 41.4708 61.845V60.1392C36.6408 56.9192 33.4591 51.3225 33.4591 45.9942C33.4591 40.9533 35.7208 36.2383 39.6499 33.0758C43.5791 29.9133 48.7349 28.725 53.7758 29.8367C58.5674 30.8908 62.7074 34.0917 64.8541 38.4042C69.0133 46.78 65.0074 55.8458 58.6058 60.1583V61.5958C58.6249 62.1517 58.6441 63.1675 57.8583 63.9725C57.2641 64.5475 56.4208 64.8542 55.3091 64.8542ZM44.3266 61.96C44.4224 61.96 44.5566 61.9792 44.7291 61.9792H55.3091C55.5008 61.9792 55.6349 61.96 55.7116 61.9408C55.7116 61.8833 55.7116 61.8067 55.7116 61.7492V59.3342C55.7116 58.8358 55.9799 58.3567 56.4016 58.1075C62.0749 54.6767 65.8316 46.8375 62.2474 39.65C60.4841 36.1042 57.0724 33.4783 53.1241 32.6158C48.9458 31.6958 44.6716 32.6733 41.4133 35.2992C38.1549 37.925 36.2958 41.8158 36.2958 45.9942C36.2958 51.3225 39.9758 55.9225 43.6174 58.1267C44.0583 58.395 44.3074 58.855 44.3074 59.3533V61.9408C44.3266 61.9408 44.3266 61.9408 44.3266 61.96Z" fill="#E3E3E3"/>
<path d="M56.7084 70.6042C56.5742 70.6042 56.44 70.585 56.3059 70.5467C52.1659 69.3583 47.815 69.3583 43.675 70.5467C42.9084 70.7575 42.1225 70.3167 41.8925 69.55C41.6625 68.7833 42.1225 67.9975 42.8892 67.7675C47.5275 66.445 52.4534 66.445 57.0917 67.7675C57.8584 67.9783 58.2992 68.7833 58.0884 69.55C57.9159 70.2017 57.3409 70.6042 56.7084 70.6042Z" fill="#E3E3E3"/>
</svg>
