<svg width="100" height="100" viewBox="0 0 100 100" fill="none" xmlns="http://www.w3.org/2000/svg">
<circle cx="50" cy="50" r="50" fill="#333537"/>
<path d="M50 70.7192C48.6775 70.7192 47.4317 70.0483 46.55 68.8792L43.675 65.0458C43.6175 64.9692 43.3875 64.8733 43.2917 64.8542H42.3334C34.3409 64.8542 29.3959 62.6883 29.3959 51.9167V42.3333C29.3959 33.8617 33.8617 29.3958 42.3334 29.3958H57.6667C66.1384 29.3958 70.6042 33.8617 70.6042 42.3333V51.9167C70.6042 60.3883 66.1384 64.8542 57.6667 64.8542H56.7084C56.555 64.8542 56.4209 64.9308 56.325 65.0458L53.45 68.8792C52.5684 70.0483 51.3225 70.7192 50 70.7192ZM42.3334 32.2708C35.4717 32.2708 32.2709 35.4717 32.2709 42.3333V51.9167C32.2709 60.58 35.2417 61.9792 42.3334 61.9792H43.2917C44.2692 61.9792 45.3809 62.535 45.975 63.3208L48.85 67.1542C49.5209 68.0358 50.4792 68.0358 51.15 67.1542L54.025 63.3208C54.6575 62.4775 55.6542 61.9792 56.7084 61.9792H57.6667C64.5284 61.9792 67.7292 58.7783 67.7292 51.9167V42.3333C67.7292 35.4717 64.5284 32.2708 57.6667 32.2708H42.3334Z" fill="#E3E3E3"/>
<path d="M59.5833 43.7708H40.4166C39.6308 43.7708 38.9791 43.1192 38.9791 42.3333C38.9791 41.5475 39.6308 40.8958 40.4166 40.8958H59.5833C60.3691 40.8958 61.0208 41.5475 61.0208 42.3333C61.0208 43.1192 60.3691 43.7708 59.5833 43.7708Z" fill="#E3E3E3"/>
<path d="M51.9166 53.3542H40.4166C39.6308 53.3542 38.9791 52.7025 38.9791 51.9167C38.9791 51.1308 39.6308 50.4792 40.4166 50.4792H51.9166C52.7025 50.4792 53.3541 51.1308 53.3541 51.9167C53.3541 52.7025 52.7025 53.3542 51.9166 53.3542Z" fill="#E3E3E3"/>
</svg>
